{
  "accessors": [
    {
      "bufferView": 2,
      "componentType": 5126,
      "count": 312,
      "max": [
        0.21875,
        0.31278857588768005,
        -0.12951427698135376
      ],
      "min": [
        -0.28125,
        0.23693214356899261,
        -0.875
      ],
      "type": "VEC3"
    },
    {
      "bufferView": 2,
      "byteOffset": 3744,
      "componentType": 5126,
      "count": 312,
      "max": [
        0.9994656443595886,
        1.0,
        0.9999971389770508
      ],
      "min": [
        -0.9995140433311462,
        -1.0,
        -0.9938294887542725
      ],
      "type": "VEC3"
    },
    {
      "bufferView": 1,
      "componentType": 5126,
      "count": 312,
      "max": [
        0.99609375,
        0.99609375
      ],
      "min": [
        0.00390625,
        0.97265625
      ],
      "type": "VEC2"
    },
    {
      "bufferView": 0,
      "componentType": 5125,
      "count": 462,
      "type": "SCALAR"
    },
    {
      "bufferView": 2,
      "byteOffset": 7488,
      "componentType": 5126,
      "count": 182,
      "max": [
        0.04374999925494194,
        0.3218750059604645,
        0.8142377138137817
      ],
      "min": [
        -0.10338961333036423,
        0.2750000059604645,
        -0.39375001192092896
      ],
      "type": "VEC3"
    },
    {
      "bufferView": 2,
      "byteOffset": 9672,
      "componentType": 5126,
      "count": 182,
      "max": [
        0.9998337626457214,
        1.0,
        0.9703580141067505
      ],
      "min": [
        -0.9998337626457214,
        -1.0,
        -1.0
      ],
      "type": "VEC3"
    },
    {
      "bufferView": 1,
      "byteOffset": 2496,
      "componentType": 5126,
      "count": 182,
      "max": [
        0.94921875,
        0.98046875
      ],
      "min": [
        0.23828125,
        0.97265625
      ],
      "type": "VEC2"
    },
    {
      "bufferView": 0,
      "byteOffset": 1848,
      "componentType": 5125,
      "count": 270,
      "type": "SCALAR"
    },
    {
      "bufferView": 2,
      "byteOffset": 11856,
      "componentType": 5126,
      "count": 368,
      "max": [
        0.03750000149011612,
        0.32249999046325684,
        -0.5218750238418579
      ],
      "min": [
        -0.10000000149011612,
        0.31312501430511475,
        -0.6968749761581421
      ],
      "type": "VEC3"
    },
    {
      "bufferView": 2,
      "byteOffset": 16272,
      "componentType": 5126,
      "count": 368,
      "max": [
        1.0,
        1.0,
        1.0
      ],
      "min": [
        -1.0,
        0.0,
        -1.0
      ],
      "type": "VEC3"
    },
    {
      "bufferView": 1,
      "byteOffset": 3952,
      "componentType": 5126,
      "count": 368,
      "max": [
        0.99609375,
        0.98046875
      ],
      "min": [
        0.00390625,
        0.94140625
      ],
      "type": "VEC2"
    },
    {
      "bufferView": 0,
      "byteOffset": 2928,
      "componentType": 5125,
      "count": 552,
      "type": "SCALAR"
    },
    {
      "bufferView": 2,
      "byteOffset": 20688,
      "componentType": 5126,
      "count": 135,
      "max": [
        0.08124999701976776,
        0.3137499988079071,
        -0.2938154339790344
      ],
      "min": [
        -0.26355814933776855,
        0.30000001192092896,
        -0.7648797035217285
      ],
      "type": "VEC3"
    },
    {
      "bufferView": 2,
      "byteOffset": 22308,
      "componentType": 5126,
      "count": 135,
      "max": [
        1.0,
        1.0,
        0.9788388609886169
      ],
      "min": [
        -0.9928538799285889,
        0.0,
        -0.9968568682670593
      ],
      "type": "VEC3"
    },
    {
      "bufferView": 1,
      "byteOffset": 6896,
      "componentType": 5126,
      "count": 135,
      "max": [
        0.91796875,
        0.94921875
      ],
      "min": [
        0.39453125,
        0.94140625
      ],
      "type": "VEC2"
    },
    {
      "bufferView": 0,
      "byteOffset": 5136,
      "componentType": 5125,
      "count": 201,
      "type": "SCALAR"
    },
    {
      "bufferView": 2,
      "byteOffset": 23928,
      "componentType": 5126,
      "count": 40,
      "max": [
        0.011250000447034836,
        0.28562501072883606,
        -0.0037499999161809683
      ],
      "min": [
        -0.011250000447034836,
        0.2643750011920929,
        -0.023749999701976776
      ],
      "type": "VEC3"
    },
    {
      "bufferView": 2,
      "byteOffset": 24408,
      "componentType": 5126,
      "count": 40,
      "max": [
        1.0,
        1.0,
        1.0
      ],
      "min": [
        -1.0,
        -1.0,
        -1.0
      ],
      "type": "VEC3"
    },
    {
      "bufferView": 1,
      "byteOffset": 7976,
      "componentType": 5126,
      "count": 40,
      "max": [
        0.99609375,
        0.94921875
      ],
      "min": [
        0.00390625,
        0.92578125
      ],
      "type": "VEC2"
    },
    {
      "bufferView": 0,
      "byteOffset": 5940,
      "componentType": 5125,
      "count": 60,
      "type": "SCALAR"
    },
    {
      "bufferView": 2,
      "byteOffset": 24888,
      "componentType": 5126,
      "count": 40,
      "max": [
        0.013854889199137688,
        0.09312500059604645,
        -0.005141323432326317
      ],
      "min": [
        -0.009895110502839088,
        0.06937500089406967,
        -0.022641323506832123
      ],
      "type": "VEC3"
    },
    {
      "bufferView": 2,
      "byteOffset": 25368,
      "componentType": 5126,
      "count": 40,
      "max": [
        1.0,
        1.0,
        1.0
      ],
      "min": [
        -1.0,
        -1.0,
        -1.0
      ],
      "type": "VEC3"
    },
    {
      "bufferView": 1,
      "byteOffset": 8296,
      "componentType": 5126,
      "count": 40,
      "max": [
        0.23046875,
        0.93359375
      ],
      "min": [
        0.08203125,
        0.92578125
      ],
      "type": "VEC2"
    },
    {
      "bufferView": 0,
      "byteOffset": 6180,
      "componentType": 5125,
      "count": 60,
      "type": "SCALAR"
    },
    {
      "bufferView": 2,
      "byteOffset": 25848,
      "componentType": 5126,
      "count": 144,
      "max": [
        -0.21562500298023224,
        0.31562501192092896,
        -0.7168750166893005
      ],
      "min": [
        -0.24062499403953552,
        0.3125,
        -0.7418749928474426
      ],
      "type": "VEC3"
    },
    {
      "bufferView": 2,
      "byteOffset": 27576,
      "componentType": 5126,
      "count": 144,
      "max": [
        1.0,
        0.9955978989601135,
        1.0
      ],
      "min": [
        -1.0,
        0.0,
        -1.0
      ],
      "type": "VEC3"
    },
    {
      "bufferView": 1,
      "byteOffset": 8616,
      "componentType": 5126,
      "count": 144,
      "max": [
        0.79296875,
        0.93359375
      ],
      "min": [
        0.23828125,
        0.92578125
      ],
      "type": "VEC2"
    },
    {
      "bufferView": 0,
      "byteOffset": 6420,
      "componentType": 5125,
      "count": 216,
      "type": "SCALAR"
    },
    {
      "bufferView": 2,
      "byteOffset": 29304,
      "componentType": 5126,
      "count": 84,
      "max": [
        0.015625,
        0.33125001192092896,
        0.015625
      ],
      "min": [
        -0.015625,
        0.3125,
        -0.015625
      ],
      "type": "VEC3"
    },
    {
      "bufferView": 2,
      "byteOffset": 30312,
      "componentType": 5126,
      "count": 84,
      "max": [
        1.0,
        1.0,
        1.0
      ],
      "min": [
        -1.0,
        0.0,
        -1.0
      ],
      "type": "VEC3"
    },
    {
      "bufferView": 1,
      "byteOffset": 9768,
      "componentType": 5126,
      "count": 84,
      "max": [
        0.99609375,
        0.93359375
      ],
      "min": [
        0.00390625,
        0.91015625
      ],
      "type": "VEC2"
    },
    {
      "bufferView": 0,
      "byteOffset": 7284,
      "componentType": 5125,
      "count": 108,
      "type": "SCALAR"
    },
    {
      "bufferView": 2,
      "byteOffset": 31320,
      "componentType": 5126,
      "count": 84,
      "max": [
        0.01875000074505806,
        0.33125001192092896,
        0.01875000074505806
      ],
      "min": [
        -0.01875000074505806,
        0.3125,
        -0.01875000074505806
      ],
      "type": "VEC3"
    },
    {
      "bufferView": 2,
      "byteOffset": 32328,
      "componentType": 5126,
      "count": 84,
      "max": [
        1.0,
        1.0,
        1.0
      ],
      "min": [
        -1.0,
        0.0,
        -1.0
      ],
      "type": "VEC3"
    },
    {
      "bufferView": 1,
      "byteOffset": 10440,
      "componentType": 5126,
      "count": 84,
      "max": [
        0.54296875,
        0.91796875
      ],
      "min": [
        0.17578125,
        0.91015625
      ],
      "type": "VEC2"
    },
    {
      "bufferView": 0,
      "byteOffset": 7716,
      "componentType": 5125,
      "count": 108,
      "type": "SCALAR"
    },
    {
      "bufferView": 2,
      "byteOffset": 33336,
      "componentType": 5126,
      "count": 84,
      "max": [
        0.01875000074505806,
        0.33125001192092896,
        0.01875000074505806
      ],
      "min": [
        -0.01875000074505806,
        0.3125,
        -0.01875000074505806
      ],
      "type": "VEC3"
    },
    {
      "bufferView": 2,
      "byteOffset": 34344,
      "componentType": 5126,
      "count": 84,
      "max": [
        1.0,
        1.0,
        1.0
      ],
      "min": [
        -1.0,
        0.0,
        -1.0
      ],
      "type": "VEC3"
    },
    {
      "bufferView": 1,
      "byteOffset": 11112,
      "componentType": 5126,
      "count": 84,
      "max": [
        0.91796875,
        0.91796875
      ],
      "min": [
        0.55078125,
        0.91015625
      ],
      "type": "VEC2"
    },
    {
      "bufferView": 0,
      "byteOffset": 8148,
      "componentType": 5125,
      "count": 108,
      "type": "SCALAR"
    },
    {
      "bufferView": 2,
      "byteOffset": 35352,
      "componentType": 5126,
      "count": 312,
      "max": [
        0.01875000074505806,
        0.33000001311302185,
        -0.7462499737739563
      ],
      "min": [
        -0.08124999701976776,
        0.3125,
        -0.8187500238418579
      ],
      "type": "VEC3"
    },
    {
      "bufferView": 2,
      "byteOffset": 39096,
      "componentType": 5126,
      "count": 312,
      "max": [
        1.0,
        1.0,
        1.0
      ],
      "min": [
        -1.0,
        -1.0,
        -1.0
      ],
      "type": "VEC3"
    },
    {
      "bufferView": 1,
      "byteOffset": 11784,
      "componentType": 5126,
      "count": 312,
      "max": [
        0.99609375,
        0.91796875
      ],
      "min": [
        0.00390625,
        0.87890625
      ],
      "type": "VEC2"
    },
    {
      "bufferView": 0,
      "byteOffset": 8580,
      "componentType": 5125,
      "count": 468,
      "type": "SCALAR"
    },
    {
      "bufferView": 2,
      "byteOffset": 42840,
      "componentType": 5126,
      "count": 504,
      "max": [
        0.011250000447034836,
        0.328125,
        0.4737499952316284
      ],
      "min": [
        -0.07374999672174454,
        0.3187499940395355,
        -0.38062500953674316
      ],
      "type": "VEC3"
    },
    {
      "bufferView": 2,
      "byteOffset": 48888,
      "componentType": 5126,
      "count": 504,
      "max": [
        1.0,
        1.0,
        1.0
      ],
      "min": [
        -1.0,
        -1.0,
        -1.0
      ],
      "type": "VEC3"
    },
    {
      "bufferView": 1,
      "byteOffset": 14280,
      "componentType": 5126,
      "count": 504,
      "max": [
        0.99609375,
        0.88671875
      ],
      "min": [
        0.00390625,
        0.84765625
      ],
      "type": "VEC2"
    },
    {
      "bufferView": 0,
      "byteOffset": 10452,
      "componentType": 5125,
      "count": 756,
      "type": "SCALAR"
    },
    {
      "bufferView": 2,
      "byteOffset": 54936,
      "componentType": 5126,
      "count": 20,
      "max": [
        -0.0031250000465661287,
        0.23749999701976776,
        -0.2593750059604645
      ],
      "min": [
        -0.05937499925494194,
        0.234375,
        -0.34062498807907104
      ],
      "type": "VEC3"
    },
    {
      "bufferView": 2,
      "byteOffset": 55176,
      "componentType": 5126,
      "count": 20,
      "max": [
        1.0,
        0.0,
        1.0
      ],
      "min": [
        -1.0,
        -1.0,
        -1.0
      ],
      "type": "VEC3"
    },
    {
      "bufferView": 1,
      "byteOffset": 18312,
      "componentType": 5126,
      "count": 20,
      "max": [
        0.08984375,
        0.52734375
      ],
      "min": [
        0.00390625,
        0.51953125
      ],
      "type": "VEC2"
    },
    {
      "bufferView": 0,
      "byteOffset": 13476,
      "componentType": 5125,
      "count": 30,
      "type": "SCALAR"
    },
    {
      "bufferView": 2,
      "byteOffset": 55416,
      "componentType": 5126,
      "count": 980,
      "max": [
        0.11031368374824524,
        0.01875000074505806,
        0.2027580738067627
      ],
      "min": [
        -0.02040846459567547,
        -0.049325767904520035,
        -0.04206399619579315
      ],
      "type": "VEC3"
    },
    {
      "bufferView": 2,
      "byteOffset": 67176,
      "componentType": 5126,
      "count": 980,
      "max": [
        1.0,
        1.0,
        1.0
      ],
      "min": [
        -1.0,
        -1.0,
        -1.0
      ],
      "type": "VEC3"
    },
    {
      "bufferView": 1,
      "byteOffset": 18472,
      "componentType": 5126,
      "count": 980,
      "max": [
        0.99609375,
        0.82421875
      ],
      "min": [
        0.00390625,
        0.75390625
      ],
      "type": "VEC2"
    },
    {
      "bufferView": 0,
      "byteOffset": 13596,
      "componentType": 5125,
      "count": 1434,
      "type": "SCALAR"
    },
    {
      "bufferView": 2,
      "byteOffset": 78936,
      "componentType": 5126,
      "count": 884,
      "max": [
        0.07436758279800415,
        0.01875000074505806,
        0.08000805974006653
      ],
      "min": [
        -0.03324739634990692,
        -0.05594630539417267,
        -0.017259681597352028
      ],
      "type": "VEC3"
    },
    {
      "bufferView": 2,
      "byteOffset": 89544,
      "componentType": 5126,
      "count": 884,
      "max": [
        1.0,
        1.0,
        1.0
      ],
      "min": [
        -1.0,
        -1.0,
        -1.0
      ],
      "type": "VEC3"
    },
    {
      "bufferView": 1,
      "byteOffset": 26312,
      "componentType": 5126,
      "count": 884,
      "max": [
        0.99609375,
        0.69921875
      ],
      "min": [
        0.00390625,
        0.64453125
      ],
      "type": "VEC2"
    },
    {
      "bufferView": 0,
      "byteOffset": 19332,
      "componentType": 5125,
      "count": 1290,
      "type": "SCALAR"
    },
    {
      "bufferView": 2,
      "byteOffset": 100152,
      "componentType": 5126,
      "count": 884,
      "max": [
        0.10264112055301666,
        0.01875004917383194,
        0.046487387269735336
      ],
      "min": [
        -0.01546916738152504,
        -0.04062500596046448,
        -0.028148990124464035
      ],
      "type": "VEC3"
    },
    {
      "bufferView": 2,
      "byteOffset": 110760,
      "componentType": 5126,
      "count": 884,
      "max": [
        1.0,
        1.0,
        1.0
      ],
      "min": [
        -1.0,
        -1.0,
        -1.0
      ],
      "type": "VEC3"
    },
    {
      "bufferView": 1,
      "byteOffset": 33384,
      "componentType": 5126,
      "count": 884,
      "max": [
        0.99609375,
        0.65234375
      ],
      "min": [
        0.00390625,
        0.58203125
      ],
      "type": "VEC2"
    },
    {
      "bufferView": 0,
      "byteOffset": 24492,
      "componentType": 5125,
      "count": 1290,
      "type": "SCALAR"
    },
    {
      "bufferView": 2,
      "byteOffset": 121368,
      "componentType": 5126,
      "count": 884,
      "max": [
        0.048928651958703995,
        0.018750062212347984,
        0.026404278352856636
      ],
      "min": [
        -0.017015615478157997,
        -0.061412785202264786,
        -0.09033586084842682
      ],
      "type": "VEC3"
    },
    {
      "bufferView": 2,
      "byteOffset": 131976,
      "componentType": 5126,
      "count": 884,
      "max": [
        1.0,
        1.0,
        1.0
      ],
      "min": [
        -1.0,
        -1.0,
        -1.0
      ],
      "type": "VEC3"
    },
    {
      "bufferView": 1,
      "byteOffset": 40456,
      "componentType": 5126,
      "count": 884,
      "max": [
        0.99609375,
        0.58984375
      ],
      "min": [
        0.00390625,
        0.53515625
      ],
      "type": "VEC2"
    },
    {
      "bufferView": 0,
      "byteOffset": 29652,
      "componentType": 5125,
      "count": 1290,
      "type": "SCALAR"
    },
    {
      "bufferView": 2,
      "byteOffset": 142584,
      "componentType": 5126,
      "count": 368,
      "max": [
        -0.007708138320595026,
        0.33000001311302185,
        0.6841859817504883
      ],
      "min": [
        -0.046875,
        0.31488874554634094,
        -0.824999988079071
      ],
      "type": "VEC3"
    },
    {
      "bufferView": 2,
      "byteOffset": 147000,
      "componentType": 5126,
      "count": 368,
      "max": [
        1.0,
        1.0,
        0.9961947202682495
      ],
      "min": [
        -1.0,
        -1.0,
        -1.0
      ],
      "type": "VEC3"
    },
    {
      "bufferView": 1,
      "byteOffset": 47528,
      "componentType": 5126,
      "count": 368,
      "max": [
        0.99609375,
        0.85546875
      ],
      "min": [
        0.00390625,
        0.83203125
      ],
      "type": "VEC2"
    },
    {
      "bufferView": 0,
      "byteOffset": 34812,
      "componentType": 5125,
      "count": 552,
      "type": "SCALAR"
    },
    {
      "bufferView": 2,
      "byteOffset": 151416,
      "componentType": 5126,
      "count": 348,
      "max": [
        -0.020236322656273842,
        0.33000001311302185,
        0.7534710764884949
      ],
      "min": [
        -0.07187499850988388,
        0.31491169333457947,
        -0.824999988079071
      ],
      "type": "VEC3"
    },
    {
      "bufferView": 2,
      "byteOffset": 155592,
      "componentType": 5126,
      "count": 348,
      "max": [
        1.0,
        1.0,
        0.9691985845565796
      ],
      "min": [
        -1.0,
        -1.0,
        -1.0
      ],
      "type": "VEC3"
    },
    {
      "bufferView": 1,
      "byteOffset": 50472,
      "componentType": 5126,
      "count": 348,
      "max": [
        0.99609375,
        0.83984375
      ],
      "min": [
        0.00390625,
        0.81640625
      ],
      "type": "VEC2"
    },
    {
      "bufferView": 0,
      "byteOffset": 37020,
      "componentType": 5125,
      "count": 522,
      "type": "SCALAR"
    },
    {
      "bufferView": 2,
      "byteOffset": 159768,
      "componentType": 5126,
      "count": 348,
      "max": [
        0.030688820406794548,
        0.004999999888241291,
        0.06041538342833519
      ],
      "min": [
        -0.0018749999580904841,
        -0.008124999701976776,
        -1.3125
      ],
      "type": "VEC3"
    },
    {
      "bufferView": 2,
      "byteOffset": 163944,
      "componentType": 5126,
      "count": 348,
      "max": [
        1.0,
        1.0,
        0.9848078489303589
      ],
      "min": [
        -1.0,
        -1.0,
        -1.0
      ],
      "type": "VEC3"
    },
    {
      "bufferView": 1,
      "byteOffset": 53256,
      "componentType": 5126,
      "count": 348,
      "max": [
        0.99609375,
        0.76171875
      ],
      "min": [
        0.00390625,
        0.72265625
      ],
      "type": "VEC2"
    },
    {
      "bufferView": 0,
      "byteOffset": 39108,
      "componentType": 5125,
      "count": 522,
      "type": "SCALAR"
    },
    {
      "bufferView": 2,
      "byteOffset": 168120,
      "componentType": 5126,
      "count": 364,
      "max": [
        0.00599374994635582,
        0.33000001311302185,
        0.6145917773246765
      ],
      "min": [
        -0.026875000447034836,
        0.31687501072883606,
        -0.824999988079071
      ],
      "type": "VEC3"
    },
    {
      "bufferView": 2,
      "byteOffset": 172488,
      "componentType": 5126,
      "count": 364,
      "max": [
        1.0,
        1.0,
        0.9848078489303589
      ],
      "min": [
        -1.0,
        -1.0,
        -1.0
      ],
      "type": "VEC3"
    },
    {
      "bufferView": 1,
      "byteOffset": 56040,
      "componentType": 5126,
      "count": 364,
      "max": [
        0.99609375,
        0.73046875
      ],
      "min": [
        0.00390625,
        0.70703125
      ],
      "type": "VEC2"
    },
    {
      "bufferView": 0,
      "byteOffset": 41196,
      "componentType": 5125,
      "count": 546,
      "type": "SCALAR"
    },
    {
      "bufferView": 2,
      "byteOffset": 176856,
      "componentType": 5126,
      "count": 180,
      "max": [
        -0.036249998956918716,
        0.00937500037252903,
        0.05000000074505806
      ],
      "min": [
        -0.06499999761581421,
        -0.0006249999860301614,
        0.021250000223517418
      ],
      "type": "VEC3"
    },
    {
      "bufferView": 2,
      "byteOffset": 179016,
      "componentType": 5126,
      "count": 180,
      "max": [
        1.0,
        1.0,
        1.0
      ],
      "min": [
        -1.0,
        -1.0,
        -1.0
      ],
      "type": "VEC3"
    },
    {
      "bufferView": 1,
      "byteOffset": 58952,
      "componentType": 5126,
      "count": 180,
      "max": [
        0.99609375,
        0.71484375
      ],
      "min": [
        0.00390625,
        0.69140625
      ],
      "type": "VEC2"
    },
    {
      "bufferView": 0,
      "byteOffset": 43380,
      "componentType": 5125,
      "count": 252,
      "type": "SCALAR"
    }
  ],
  "asset": {
    "extras": {
      "author": "Resix6 (https://sketchfab.com/Resix6)",
      "license": "CC-BY-4.0 (http://creativecommons.org/licenses/by/4.0/)",
      "source": "https://sketchfab.com/3d-models/low-polygons-shihos-bass-9da4c87f5ed84c8fb00f823f969bd142",
      "title": "Low polygons Shiho's bass"
    },
    "generator": "Sketchfab-14.60.0",
    "version": "2.0"
  },
  "bufferViews": [
    {
      "buffer": 0,
      "byteLength": 44388,
      "name": "floatBufferViews",
      "target": 34963
    },
    {
      "buffer": 0,
      "byteLength": 60392,
      "byteOffset": 44388,
      "byteStride": 8,
      "name": "floatBufferViews",
      "target": 34962
    },
    {
      "buffer": 0,
      "byteLength": 181176,
      "byteOffset": 104780,
      "byteStride": 12,
      "name": "floatBufferViews",
      "target": 34962
    }
  ],
  "buffers": [
    {
      "byteLength": 285956,
      "uri": "scene.bin"
    }
  ],
  "images": [
    {
      "uri": "textures/material_0_baseColor.png"
    }
  ],
  "materials": [
    {
      "alphaCutoff": 0.05,
      "alphaMode": "MASK",
      "doubleSided": true,
      "name": "material_0",
      "pbrMetallicRoughness": {
        "baseColorTexture": {
          "index": 0
        },
        "metallicFactor": 0.0
      }
    }
  ],
  "meshes": [
    {
      "name": "Object_0",
      "primitives": [
        {
          "attributes": {
            "NORMAL": 1,
            "POSITION": 0,
            "TEXCOORD_0": 2
          },
          "indices": 3,
          "material": 0,
          "mode": 4
        }
      ]
    },
    {
      "name": "Object_1",
      "primitives": [
        {
          "attributes": {
            "NORMAL": 5,
            "POSITION": 4,
            "TEXCOORD_0": 6
          },
          "indices": 7,
          "material": 0,
          "mode": 4
        }
      ]
    },
    {
      "name": "Object_2",
      "primitives": [
        {
          "attributes": {
            "NORMAL": 9,
            "POSITION": 8,
            "TEXCOORD_0": 10
          },
          "indices": 11,
          "material": 0,
          "mode": 4
        }
      ]
    },
    {
      "name": "Object_3",
      "primitives": [
        {
          "attributes": {
            "NORMAL": 13,
            "POSITION": 12,
            "TEXCOORD_0": 14
          },
          "indices": 15,
          "material": 0,
          "mode": 4
        }
      ]
    },
    {
      "name": "Object_4",
      "primitives": [
        {
          "attributes": {
            "NORMAL": 17,
            "POSITION": 16,
            "TEXCOORD_0": 18
          },
          "indices": 19,
          "material": 0,
          "mode": 4
        }
      ]
    },
    {
      "name": "Object_5",
      "primitives": [
        {
          "attributes": {
            "NORMAL": 21,
            "POSITION": 20,
            "TEXCOORD_0": 22
          },
          "indices": 23,
          "material": 0,
          "mode": 4
        }
      ]
    },
    {
      "name": "Object_6",
      "primitives": [
        {
          "attributes": {
            "NORMAL": 25,
            "POSITION": 24,
            "TEXCOORD_0": 26
          },
          "indices": 27,
          "material": 0,
          "mode": 4
        }
      ]
    },
    {
      "name": "Object_7",
      "primitives": [
        {
          "attributes": {
            "NORMAL": 29,
            "POSITION": 28,
            "TEXCOORD_0": 30
          },
          "indices": 31,
          "material": 0,
          "mode": 4
        }
      ]
    },
    {
      "name": "Object_8",
      "primitives": [
        {
          "attributes": {
            "NORMAL": 33,
            "POSITION": 32,
            "TEXCOORD_0": 34
          },
          "indices": 35,
          "material": 0,
          "mode": 4
        }
      ]
    },
    {
      "name": "Object_9",
      "primitives": [
        {
          "attributes": {
            "NORMAL": 37,
            "POSITION": 36,
            "TEXCOORD_0": 38
          },
          "indices": 39,
          "material": 0,
          "mode": 4
        }
      ]
    },
    {
      "name": "Object_10",
      "primitives": [
        {
          "attributes": {
            "NORMAL": 41,
            "POSITION": 40,
            "TEXCOORD_0": 42
          },
          "indices": 43,
          "material": 0,
          "mode": 4
        }
      ]
    },
    {
      "name": "Object_11",
      "primitives": [
        {
          "attributes": {
            "NORMAL": 45,
            "POSITION": 44,
            "TEXCOORD_0": 46
          },
          "indices": 47,
          "material": 0,
          "mode": 4
        }
      ]
    },
    {
      "name": "Object_12",
      "primitives": [
        {
          "attributes": {
            "NORMAL": 49,
            "POSITION": 48,
            "TEXCOORD_0": 50
          },
          "indices": 51,
          "material": 0,
          "mode": 4
        }
      ]
    },
    {
      "name": "Object_13",
      "primitives": [
        {
          "attributes": {
            "NORMAL": 53,
            "POSITION": 52,
            "TEXCOORD_0": 54
          },
          "indices": 55,
          "material": 0,
          "mode": 4
        }
      ]
    },
    {
      "name": "Object_14",
      "primitives": [
        {
          "attributes": {
            "NORMAL": 57,
            "POSITION": 56,
            "TEXCOORD_0": 58
          },
          "indices": 59,
          "material": 0,
          "mode": 4
        }
      ]
    },
    {
      "name": "Object_15",
      "primitives": [
        {
          "attributes": {
            "NORMAL": 61,
            "POSITION": 60,
            "TEXCOORD_0": 62
          },
          "indices": 63,
          "material": 0,
          "mode": 4
        }
      ]
    },
    {
      "name": "Object_16",
      "primitives": [
        {
          "attributes": {
            "NORMAL": 65,
            "POSITION": 64,
            "TEXCOORD_0": 66
          },
          "indices": 67,
          "material": 0,
          "mode": 4
        }
      ]
    },
    {
      "name": "Object_17",
      "primitives": [
        {
          "attributes": {
            "NORMAL": 69,
            "POSITION": 68,
            "TEXCOORD_0": 70
          },
          "indices": 71,
          "material": 0,
          "mode": 4
        }
      ]
    },
    {
      "name": "Object_18",
      "primitives": [
        {
          "attributes": {
            "NORMAL": 73,
            "POSITION": 72,
            "TEXCOORD_0": 74
          },
          "indices": 75,
          "material": 0,
          "mode": 4
        }
      ]
    },
    {
      "name": "Object_19",
      "primitives": [
        {
          "attributes": {
            "NORMAL": 77,
            "POSITION": 76,
            "TEXCOORD_0": 78
          },
          "indices": 79,
          "material": 0,
          "mode": 4
        }
      ]
    },
    {
      "name": "Object_20",
      "primitives": [
        {
          "attributes": {
            "NORMAL": 81,
            "POSITION": 80,
            "TEXCOORD_0": 82
          },
          "indices": 83,
          "material": 0,
          "mode": 4
        }
      ]
    },
    {
      "name": "Object_21",
      "primitives": [
        {
          "attributes": {
            "NORMAL": 85,
            "POSITION": 84,
            "TEXCOORD_0": 86
          },
          "indices": 87,
          "material": 0,
          "mode": 4
        }
      ]
    }
  ],
  "nodes": [
    {
      "children": [
        1
      ],
      "matrix": [
        1.0,
        0.0,
        0.0,
        0.0,
        0.0,
        2.220446049250313e-16,
        -1.0,
        0.0,
        0.0,
        1.0,
        2.220446049250313e-16,
        0.0,
        0.0,
        0.0,
        0.0,
        1.0
      ],
      "name": "Sketchfab_model"
    },
    {
      "children": [
        2
      ],
      "name": "root"
    },
    {
      "children": [
        3
      ],
      "matrix": [
        1.0,
        0.0,
        0.0,
        0.0,
        0.0,
        2.220446049250313e-16,
        1.0,
        0.0,
        0.0,
        -1.0,
        2.220446049250313e-16,
        0.0,
        0.0,
        0.0,
        0.0,
        1.0
      ],
      "name": "GLTF_SceneRootNode"
    },
    {
      "children": [
        4,
        6,
        8,
        10,
        12,
        14,
        16,
        18,
        20,
        22,
        24,
        26,
        28,
        30,
        39
      ],
      "name": "_24"
    },
    {
      "children": [
        5
      ],
      "name": "Body_0"
    },
    {
      "mesh": 0,
      "name": "Object_5"
    },
    {
      "children": [
        7
      ],
      "name": "Neck&Head_1"
    },
    {
      "mesh": 1,
      "name": "Object_7"
    },
    {
      "children": [
        9
      ],
      "name": "PickUps_2"
    },
    {
      "mesh": 2,
      "name": "Object_9"
    },
    {
      "children": [
        11
      ],
      "name": "PickGuard_3"
    },
    {
      "mesh": 3,
      "name": "Object_11"
    },
    {
      "children": [
        13
      ],
      "matrix": [
        0.9914448624810359,
        0.0,
        0.13052618380983907,
        0.0,
        -0.0,
        1.0,
        0.0,
        0.0,
        -0.13052618380983907,
        -0.0,
        0.9914448624810359,
        0.0,
        -0.03125,
        0.0,
        -0.856249988079071,
        1.0
      ],
      "name": "StrapPin1_4"
    },
    {
      "mesh": 4,
      "name": "Object_13"
    },
    {
      "children": [
        15
      ],
      "matrix": [
        -0.9238795268167603,
        0.0,
        -0.38268344611289284,
        0.0,
        0.0,
        1.0,
        0.0,
        0.0,
        0.38268344611289284,
        0.0,
        -0.9238795268167603,
        0.0,
        0.11249999701976776,
        0.19374999403953552,
        -0.14374999701976776,
        1.0
      ],
      "name": "StrapPin2_5"
    },
    {
      "mesh": 5,
      "name": "Object_15"
    },
    {
      "children": [
        17
      ],
      "name": "Input_6"
    },
    {
      "mesh": 6,
      "name": "Object_17"
    },
    {
      "children": [
        19
      ],
      "matrix": [
        1.0,
        0.0,
        0.0,
        0.0,
        0.0,
        1.0,
        0.0,
        0.0,
        0.0,
        0.0,
        1.0,
        0.0,
        -0.20000000298023224,
        0.0,
        -0.6875,
        1.0
      ],
      "name": "Nobs3_7"
    },
    {
      "mesh": 7,
      "name": "Object_19"
    },
    {
      "children": [
        21
      ],
      "matrix": [
        1.0,
        0.0,
        0.0,
        0.0,
        0.0,
        1.0,
        0.0,
        0.0,
        0.0,
        0.0,
        1.0,
        0.0,
        -0.17249999940395355,
        0.0,
        -0.6456249952316284,
        1.0
      ],
      "name": "Nobs2_8"
    },
    {
      "mesh": 8,
      "name": "Object_21"
    },
    {
      "children": [
        23
      ],
      "matrix": [
        1.0,
        0.0,
        0.0,
        0.0,
        0.0,
        1.0,
        0.0,
        0.0,
        0.0,
        0.0,
        1.0,
        0.0,
        -0.1443749964237213,
        0.0,
        -0.6043750047683716,
        1.0
      ],
      "name": "Nobs1_9"
    },
    {
      "mesh": 9,
      "name": "Object_23"
    },
    {
      "children": [
        25
      ],
      "name": "Bridge_10"
    },
    {
      "mesh": 10,
      "name": "Object_25"
    },
    {
      "children": [
        27
      ],
      "name": "Frets_11"
    },
    {
      "mesh": 11,
      "name": "Object_27"
    },
    {
      "children": [
        29
      ],
      "name": "cube_12"
    },
    {
      "mesh": 12,
      "name": "Object_29"
    },
    {
      "children": [
        31,
        33,
        35,
        37
      ],
      "matrix": [
        1.0,
        0.0,
        0.0,
        0.0,
        0.0,
        1.0,
        0.0,
        0.0,
        0.0,
        0.0,
        1.0,
        0.0,
        -0.006874999962747097,
        0.3125,
        -0.53125,
        1.0
      ],
      "name": "MachineHeads_17"
    },
    {
      "children": [
        32
      ],
      "matrix": [
        0.766044428323831,
        0.0,
        0.6427876273187085,
        0.0,
        0.0,
        1.0,
        0.0,
        0.0,
        -0.6427876273187085,
        -0.0,
        0.766044428323831,
        0.0,
        0.013749999925494194,
        0.0,
        1.0625,
        1.0
      ],
      "name": "MH4_13"
    },
    {
      "mesh": 13,
      "name": "Object_32"
    },
    {
      "children": [
        34
      ],
      "matrix": [
        0.9238795268163054,
        -1.0254710644286455e-06,
        -0.3826834461126169,
        0.0,
        8.870108452792976e-07,
        0.9999999999994618,
        -5.382514098869826e-07,
        0.0,
        0.38268344611296284,
        1.5783509086384795e-07,
        0.9238795268167177,
        0.0,
        -0.0031250000465661287,
        0.0,
        1.1293749809265137,
        1.0
      ],
      "name": "MH3_14"
    },
    {
      "mesh": 14,
      "name": "Object_34"
    },
    {
      "children": [
        36
      ],
      "matrix": [
        0.9063077824085229,
        7.219987809751324e-08,
        0.42261827166574345,
        0.0,
        1.7406069668284355e-15,
        0.9999999999999855,
        -1.7083946557838849e-07,
        0.0,
        -0.42261827166574967,
        1.548331379318188e-07,
        0.9063077824085097,
        0.0,
        -0.017500000074505806,
        0.0,
        1.1981250047683716,
        1.0
      ],
      "name": "MH2_15"
    },
    {
      "mesh": 15,
      "name": "Object_36"
    },
    {
      "children": [
        38
      ],
      "matrix": [
        -0.2588190190685902,
        1.650182608879044e-07,
        0.9659258332648246,
        0.0,
        -7.373748998794341e-15,
        0.9999999999999855,
        -1.7083947557195727e-07,
        0.0,
        -0.9659258332648386,
        -4.421651260822099e-08,
        -0.2588190190685864,
        0.0,
        -0.028750000521540642,
        0.0,
        1.269374966621399,
        1.0
      ],
      "name": "MH1_16"
    },
    {
      "mesh": 16,
      "name": "Object_38"
    },
    {
      "children": [
        40,
        42,
        44,
        46,
        48
      ],
      "matrix": [
        1.0,
        0.0,
        0.0,
        0.0,
        0.0,
        1.0,
        0.0,
        0.0,
        0.0,
        0.0,
        1.0,
        0.0,
        -0.006874999962747097,
        0.3125,
        -0.53125,
        1.0
      ],
      "name": "Strings_23"
    },
    {
      "children": [
        41
      ],
      "matrix": [
        1.0,
        0.0,
        0.0,
        0.0,
        0.0,
        1.0,
        0.0,
        0.0,
        0.0,
        0.0,
        1.0,
        0.0,
        0.006874999962747097,
        -0.3125,
        0.53125,
        1.0
      ],
      "name": "String2_18"
    },
    {
      "mesh": 17,
      "name": "Object_41"
    },
    {
      "children": [
        43
      ],
      "matrix": [
        1.0,
        0.0,
        0.0,
        0.0,
        0.0,
        1.0,
        0.0,
        0.0,
        0.0,
        0.0,
        1.0,
        0.0,
        0.006874999962747097,
        -0.3125,
        0.53125,
        1.0
      ],
      "name": "String1_19"
    },
    {
      "mesh": 18,
      "name": "Object_43"
    },
    {
      "children": [
        45
      ],
      "matrix": [
        1.0,
        0.0,
        0.0,
        0.0,
        0.0,
        1.0,
        0.0,
        0.0,
        0.0,
        0.0,
        1.0,
        0.0,
        -0.005625000223517418,
        0.012500000186264515,
        1.0187499523162842,
        1.0
      ],
      "name": "String4_20"
    },
    {
      "mesh": 19,
      "name": "Object_45"
    },
    {
      "children": [
        47
      ],
      "matrix": [
        1.0,
        0.0,
        0.0,
        0.0,
        0.0,
        1.0,
        0.0,
        0.0,
        0.0,
        0.0,
        1.0,
        0.0,
        0.006874999962747097,
        -0.3125,
        0.53125,
        1.0
      ],
      "name": "String3_21"
    },
    {
      "mesh": 20,
      "name": "Object_47"
    },
    {
      "children": [
        49
      ],
      "matrix": [
        1.0,
        0.0,
        0.0,
        0.0,
        0.0,
        1.0,
        0.0,
        0.0,
        0.0,
        0.0,
        1.0,
        0.0,
        0.013749999925494194,
        0.0,
        1.0625,
        1.0
      ],
      "name": "cylinder_22"
    },
    {
      "mesh": 21,
      "name": "Object_49"
    }
  ],
  "samplers": [
    {
      "magFilter": 9728,
      "minFilter": 9728,
      "wrapS": 33071,
      "wrapT": 33071
    }
  ],
  "scene": 0,
  "scenes": [
    {
      "name": "Sketchfab_Scene",
      "nodes": [
        0
      ]
    }
  ],
  "textures": [
    {
      "sampler": 0,
      "source": 0
    }
  ]
}
